<svg fill="none" viewBox="0 0 333 331" xmlns="http://www.w3.org/2000/svg"><g filter="url(#prefix__circle_4f)" opacity=".7"><ellipse cx="166.63" cy="162.72" rx="141.81" ry="120.38" fill="#1B2C48"/></g><circle cx="166" cy="181" r="149.4" fill="#192E49" stroke="url(#prefix__circle_4d)" stroke-width="1.2"/><circle cx="166" cy="181" r="94.538" fill="#091C3A" opacity=".8"/><g filter="url(#prefix__circle_4e)"><circle cx="166" cy="181" fill="#091C3A" fill-opacity=".6" r="75.63"/></g><path d="M240.93 181c0 41.383-33.548 74.93-74.931 74.93-41.382 0-74.93-33.547-74.93-74.93s33.548-74.93 74.93-74.93c41.383 0 74.931 33.547 74.931 74.93z" stroke="url(#prefix__circle_4c)" stroke-width="1.4"/><path d="M258.95 274.69c-51.335 51.538-134.56 51.538-185.9 0-51.339-51.54-51.339-135.11 0-186.65 51.335-51.537 134.56-51.537 185.9 0 51.338 51.54 51.338 135.11 0 186.65z" stroke="url(#prefix__circle_4b)" stroke-linejoin="round" stroke-width="3"><animateTransform attributeName="transform" dur="5s" from="0 166 181" repeatCount="indefinite" to="360 166 181" type="rotate"/></path><path d="M106.95 283.28c-56.486-32.613-75.84-104.84-43.228-161.33 32.613-56.486 104.84-75.84 161.33-43.228 56.487 32.613 75.84 104.84 43.228 161.33-32.613 56.487-104.84 75.84-161.33 43.228z" stroke="url(#prefix__circle_4a)" stroke-linejoin="round" stroke-width="3"><animateTransform attributeName="transform" dur="2s" from="360 166 181" repeatCount="indefinite" to="0 166 181" type="rotate"/></path><circle cx="166" cy="181" r="85" opacity=".8" stroke="#1E82B166" stroke-dasharray="2 4" stroke-width="10"><animateTransform attributeName="transform" dur="120s" from="0 166 181" repeatCount="indefinite" to="360 166 181" type="rotate"/></circle><defs><linearGradient id="prefix__circle_4d" x1="119.36" x2="119.36" y1="31" y2="331" gradientUnits="userSpaceOnUse"><stop stop-color="#5180E4" offset="0"/><stop stop-color="#1D365B" stop-opacity=".5" offset=".505"/><stop stop-color="#193497" offset="1"/></linearGradient><linearGradient id="prefix__circle_4c" x1="166" x2="166" y1="105.37" y2="256.63" gradientUnits="userSpaceOnUse"><stop stop-color="#3C89DA" offset="0"/><stop stop-color="#0F3E84" stop-opacity=".36" offset=".207"/><stop stop-color="#0F3E84" stop-opacity=".36" offset=".802"/><stop stop-color="#3C89DA" offset="1"/></linearGradient><linearGradient id="prefix__circle_4b" x1="259.06" x2="70.299" y1="276.71" y2="88.683" gradientUnits="userSpaceOnUse"><stop stop-color="#49C3FD" offset="0"/><stop stop-color="#49C3FD" stop-opacity="0" offset=".242"/><stop stop-color="#49C3FD" stop-opacity="0" offset=".596"/><stop stop-color="#49C3FD" stop-opacity="0" offset=".845"/><stop stop-color="#49C3FD" offset="1"/></linearGradient><linearGradient id="prefix__circle_4a" x1="105.15" x2="224.75" y1="283.97" y2="76.818" gradientUnits="userSpaceOnUse"><stop stop-color="#49C3FD" offset="0"/><stop stop-color="#49C3FD" stop-opacity="0" offset=".242"/><stop stop-color="#49C3FD" stop-opacity="0" offset=".596"/><stop stop-color="#49C3FD" stop-opacity="0" offset=".845"/><stop stop-color="#49C3FD" offset="1"/></linearGradient><filter id="prefix__circle_4f" x=".823" y=".345" width="331.61" height="288.76" color-interpolation-filters="sRGB" filterUnits="userSpaceOnUse"><feFlood flood-opacity="0" result="BackgroundImageFix"/><feColorMatrix in="SourceAlpha" result="hardAlpha" values="0 0 0 0 0 0 0 0 0 0 0 0 0 0 0 0 0 0 127 0"/><feOffset dy="-18"/><feGaussianBlur stdDeviation="12"/><feComposite in2="hardAlpha" operator="out"/><feColorMatrix values="0 0 0 0 0.127344 0 0 0 0 0.403255 0 0 0 0 0.679167 0 0 0 0.72 0"/><feBlend in2="BackgroundImageFix" result="effect1_dropShadow"/><feBlend in="SourceGraphic" in2="effect1_dropShadow" result="shape"/></filter><filter id="prefix__circle_4e" x="90.37" y="105.37" width="151.26" height="159.26" color-interpolation-filters="sRGB" filterUnits="userSpaceOnUse"><feFlood flood-opacity="0" result="BackgroundImageFix"/><feBlend in="SourceGraphic" in2="BackgroundImageFix" result="shape"/><feColorMatrix in="SourceAlpha" result="hardAlpha" values="0 0 0 0 0 0 0 0 0 0 0 0 0 0 0 0 0 0 127 0"/><feOffset dy="8"/><feGaussianBlur stdDeviation="6"/><feComposite in2="hardAlpha" k2="-1" k3="1" operator="arithmetic"/><feColorMatrix values="0 0 0 0 0.716667 0 0 0 0 0.932 0 0 0 0 1 0 0 0 0.08 0"/><feBlend in2="shape" result="effect1_innerShadow"/></filter></defs></svg>